<?xml version="1.0" encoding="UTF-8" standalone="no"?>
<!-- Created with Inkscape (http://www.inkscape.org/) -->

<svg
   width="252.00267mm"
   height="254.56001mm"
   viewBox="0 0 252.00267 254.56001"
   version="1.1"
   id="svg1"
   xml:space="preserve"
   inkscape:version="1.4.4 (dcaf3e7, 2026-05-05)"
   sodipodi:docname="LogoFront.svg"
   xmlns:inkscape="http://www.inkscape.org/namespaces/inkscape"
   xmlns:sodipodi="http://sodipodi.sourceforge.net/DTD/sodipodi-0.dtd"
   xmlns:xlink="http://www.w3.org/1999/xlink"
   xmlns="http://www.w3.org/2000/svg"
   xmlns:svg="http://www.w3.org/2000/svg"><sodipodi:namedview
     id="namedview1"
     pagecolor="#ffffff"
     bordercolor="#000000"
     borderopacity="0.25"
     inkscape:showpageshadow="2"
     inkscape:pageopacity="0.0"
     inkscape:pagecheckerboard="0"
     inkscape:deskcolor="#d1d1d1"
     inkscape:document-units="mm"
     showguides="true"
     inkscape:zoom="0.65477694"
     inkscape:cx="279.48449"
     inkscape:cy="469.62558"
     inkscape:window-width="1920"
     inkscape:window-height="974"
     inkscape:window-x="-11"
     inkscape:window-y="-11"
     inkscape:window-maximized="1"
     inkscape:current-layer="layer1" /><defs
     id="defs1"><linearGradient
       id="linearGradient16"
       inkscape:collect="always"><stop
         style="stop-color:#05bdef;stop-opacity:1;"
         offset="0"
         id="stop17" /><stop
         style="stop-color:#0095fa;stop-opacity:1;"
         offset="1"
         id="stop18" /></linearGradient><inkscape:path-effect
       effect="fillet_chamfer"
       id="path-effect16"
       is_visible="true"
       lpeversion="1"
       nodesatellites_param="F,0,0,1,0,0,0,1 @ F,0,0,1,0,3.8588729,0,1 @ F,0,0,1,0,4.657041,0,1 @ F,0,0,1,0,4.1046643,0,1 @ F,0,0,1,0,0,0,1 @ F,0,0,1,0,0,0,1 @ F,0,0,1,0,0,0,1"
       radius="0"
       unit="px"
       method="auto"
       mode="F"
       chamfer_steps="1"
       flexible="false"
       use_knot_distance="true"
       apply_no_radius="true"
       apply_with_radius="true"
       only_selected="false"
       hide_knots="false" /><linearGradient
       id="linearGradient13"
       inkscape:collect="always"><stop
         style="stop-color:#044c9c;stop-opacity:1;"
         offset="0"
         id="stop13" /><stop
         style="stop-color:#0367c7;stop-opacity:1;"
         offset="0.45419848"
         id="stop16" /><stop
         style="stop-color:#0168e3;stop-opacity:1;"
         offset="0.71183205"
         id="stop15" /><stop
         style="stop-color:#005def;stop-opacity:1;"
         offset="1"
         id="stop14" /></linearGradient><inkscape:path-effect
       effect="fillet_chamfer"
       id="path-effect13"
       is_visible="true"
       lpeversion="1"
       nodesatellites_param="F,0,0,1,0,25.958886,0,1 @ F,0,0,1,0,25.477205,0,1 @ F,0,0,1,0,0,0,1 @ F,0,0,1,0,0,0,1 @ F,0,0,1,0,6.4071732,0,1 @ F,0,0,1,0,2.705451,0,1 @ F,0,0,1,0,9.5977636,0,1 @ F,0,0,1,0,1.817833,0,1 @ F,0,0,1,0,0,0,1 @ F,0,0,1,0,0,0,1 @ F,0,0,1,0,0,0,1 @ F,0,0,1,0,0,0,1"
       radius="0"
       unit="px"
       method="auto"
       mode="F"
       chamfer_steps="1"
       flexible="false"
       use_knot_distance="true"
       apply_no_radius="true"
       apply_with_radius="true"
       only_selected="false"
       hide_knots="false" /><inkscape:path-effect
       effect="fillet_chamfer"
       id="path-effect12"
       is_visible="true"
       lpeversion="1"
       nodesatellites_param="F,0,0,1,0,0,0,1 @ F,0,0,1,0,8.2149768,0,1 @ F,0,0,1,0,0,0,1 @ F,0,0,1,0,0,0,1 @ F,0,0,1,0,2.0022588,0,1 @ F,0,0,1,0,2.5141856,0,1 @ F,0,0,1,0,6.4889642,0,1 @ F,0,0,1,0,0,0,1 @ F,0,0,1,0,23.361948,0,1 @ F,0,0,1,0,23.739803,0,1"
       radius="0"
       unit="px"
       method="auto"
       mode="F"
       chamfer_steps="1"
       flexible="false"
       use_knot_distance="true"
       apply_no_radius="true"
       apply_with_radius="true"
       only_selected="false"
       hide_knots="false" /><linearGradient
       id="linearGradient10"
       inkscape:collect="always"><stop
         style="stop-color:#02c5cd;stop-opacity:1;"
         offset="0"
         id="stop10" /><stop
         style="stop-color:#0477fb;stop-opacity:1;"
         offset="0.26145038"
         id="stop12" /><stop
         style="stop-color:#013fca;stop-opacity:1;"
         offset="1"
         id="stop11" /></linearGradient><inkscape:path-effect
       effect="fillet_chamfer"
       id="path-effect10"
       is_visible="true"
       lpeversion="1"
       nodesatellites_param="F,0,0,1,0,0,0,1 @ F,0,0,1,0,7.0562781,0,1 @ F,0,0,1,0,9.9374168,0,1 @ F,0,0,1,0,2.7717374,0,1 @ F,0,0,1,0,0,0,1 @ F,0,0,1,0,0,0,1 @ F,0,0,1,0,0,0,1 @ F,0,0,1,0,25.882983,0,1 @ F,0,0,1,0,25.160081,0,1 @ F,0,0,1,0,0,0,1 @ F,0,0,1,0,0,0,1"
       radius="0"
       unit="px"
       method="auto"
       mode="F"
       chamfer_steps="1"
       flexible="false"
       use_knot_distance="true"
       apply_no_radius="true"
       apply_with_radius="true"
       only_selected="false"
       hide_knots="false" /><inkscape:path-effect
       effect="fillet_chamfer"
       id="path-effect9"
       is_visible="true"
       lpeversion="1"
       nodesatellites_param="F,0,0,1,0,2.7846681,0,1 @ F,0,0,1,0,2.8952852,0,1 @ F,0,0,1,0,0,0,1 @ F,0,0,1,0,4.0327574,0,1 @ F,0,0,1,0,4.5543475,0,1 @ F,0,0,1,0,0,0,1 @ F,0,0,1,0,1.8050443,0,1 @ F,0,0,1,0,2.9382588,0,1 @ F,0,0,1,0,0,0,1"
       radius="0"
       unit="px"
       method="auto"
       mode="F"
       chamfer_steps="1"
       flexible="false"
       use_knot_distance="true"
       apply_no_radius="true"
       apply_with_radius="true"
       only_selected="false"
       hide_knots="false" /><inkscape:path-effect
       effect="fillet_chamfer"
       id="path-effect5"
       is_visible="true"
       lpeversion="1"
       nodesatellites_param="F,0,0,1,0,3.90467,0,1 @ F,0,0,1,0,2.8952852,0,1 @ F,0,0,1,0,0,0,1 @ F,0,0,1,0,4.0327574,0,1 @ F,0,0,1,0,4.5543475,0,1 @ F,0,0,1,0,0,0,1 @ F,0,0,1,0,1.8050443,0,1 @ F,0,0,1,0,2.9382588,0,1 @ F,0,0,1,0,0,0,1"
       radius="0"
       unit="px"
       method="auto"
       mode="F"
       chamfer_steps="1"
       flexible="false"
       use_knot_distance="true"
       apply_no_radius="true"
       apply_with_radius="true"
       only_selected="false"
       hide_knots="false" /><linearGradient
       id="linearGradient4"
       inkscape:collect="always"><stop
         style="stop-color:#08e1d0;stop-opacity:1;"
         offset="0"
         id="stop4" /><stop
         style="stop-color:#01d5d7;stop-opacity:1;"
         offset="1"
         id="stop5" /></linearGradient><linearGradient
       id="linearGradient2"
       inkscape:collect="always"><stop
         style="stop-color:#0fa9c2;stop-opacity:1;"
         offset="0"
         id="stop2" /><stop
         style="stop-color:#038a8d;stop-opacity:1;"
         offset="0.36641222"
         id="stop3" /></linearGradient><linearGradient
       inkscape:collect="always"
       xlink:href="#linearGradient2"
       id="linearGradient3"
       x1="104.80711"
       y1="123.55267"
       x2="104.80711"
       y2="26.460814"
       gradientUnits="userSpaceOnUse" /><linearGradient
       inkscape:collect="always"
       xlink:href="#linearGradient4"
       id="linearGradient5"
       x1="56.261189"
       y1="57.941059"
       x2="153.35304"
       y2="57.941059"
       gradientUnits="userSpaceOnUse" /><linearGradient
       inkscape:collect="always"
       xlink:href="#linearGradient10"
       id="linearGradient11"
       x1="177.29437"
       y1="63.787655"
       x2="177.29437"
       y2="171.58366"
       gradientUnits="userSpaceOnUse" /><linearGradient
       inkscape:collect="always"
       xlink:href="#linearGradient13"
       id="linearGradient14"
       x1="90.148476"
       y1="146.63373"
       x2="90.148476"
       y2="275.26279"
       gradientUnits="userSpaceOnUse" /><linearGradient
       inkscape:collect="always"
       xlink:href="#linearGradient16"
       id="linearGradient18"
       x1="130.23019"
       y1="169.70572"
       x2="130.23019"
       y2="218.02325"
       gradientUnits="userSpaceOnUse" /></defs><g
     inkscape:label="Capa 1"
     inkscape:groupmode="layer"
     id="layer1"
     transform="translate(20.810273,-16.439986)"><path
       style="display:inline;fill:url(#linearGradient11);stroke:none;stroke-width:0.264583;stroke-opacity:1"
       d="m 123.39637,65.259182 v 58.106658 a 7.0562781,7.0562781 45 0 0 7.05628,7.05628 h 43.46704 a 9.9374168,9.9374168 45 0 1 9.93742,9.93742 v 17.97113 a 2.7717374,2.7717374 135 0 1 -2.77174,2.77174 h -51.21094 c 0,0 16.49992,6.82897 21.88668,13.49568 9.42224,11.66105 8.95607,24.40588 8.95607,24.40588 h 44.59223 a 25.882983,25.882983 135 0 0 25.88298,-25.88298 V 120.90565 A 25.160081,25.160081 45 0 0 206.03231,95.745565 H 153.34668 V 36.367346 Z"
       id="path9"
       sodipodi:nodetypes="cccccscccccc"
       inkscape:path-effect="#path-effect10"
       inkscape:original-d="m 123.39637,65.259182 v 65.162938 h 60.46074 v 30.68029 h -53.98268 c 0,0 16.49992,6.82897 21.88668,13.49568 9.42224,11.66105 8.95607,24.40588 8.95607,24.40588 h 70.47521 V 95.745565 H 153.34668 V 36.367346 Z" /><g
       id="g12"><path
         id="path5"
         style="display:inline;fill:url(#linearGradient3);stroke-width:0.264583"
         d="m 137.41125,17.613912 c 8.1916,2.652515 16.1474,11.87683 15.93753,20.392037 0.2616,-8.513932 -7.73991,-17.739554 -15.93753,-20.392037 z m -73.080293,5.648234 c -0.553009,0.450199 -1.092056,0.962845 -1.611788,1.526005 0.519738,-0.563166 1.058773,-1.075802 1.611788,-1.526005 z m 56.812553,46.222502 c -9.32319,0.07065 -37.761412,-0.04151 -40.260075,0.679545 -13.926605,4.018902 -23.897827,15.393495 -23.390303,29.277799 0,0 -0.860043,-2.761785 -1.16117,-4.934066 0.224395,1.804172 1.007126,7.118594 2.67839,9.440254 14.976755,20.80513 33.46514,29.62506 33.46514,29.62506 l 0.118339,-49.481215 c 0,0 0.788053,-11.753094 12.260749,-13.927832 2.61302,-0.495319 16.27188,-0.674894 16.27188,-0.674894 0,0 0.006,-0.0015 0.0171,-0.0047 z" /><path
         style="display:inline;fill:url(#linearGradient5);stroke-width:0.264583"
         d="m 84.770058,69.838087 c 8.685683,-0.359724 28.883212,-0.295958 36.414142,-0.353806 1.59834,-0.01228 4.1092,-0.516454 5.59409,-1.109627 19.92348,-7.958872 26.23286,-16.662005 26.57069,-30.368572 0.19125,-7.759505 -6.39849,-16.107631 -13.76812,-19.535388 -2.01521,-0.937316 -5.59238,-1.609214 -7.81326,-1.75356 -11.64653,-0.756963 -39.315227,0.229449 -50.240145,0.668862 -2.513037,0.101077 -6.636014,0.23827 -8.995816,1.073511 -2.155603,0.762966 -4.977552,2.179078 -8.200459,4.802671 -3.972249,3.233591 -7.218206,9.676542 -7.83993,15.088129 -0.11372,0.989838 -0.107691,2.60899 -0.108929,3.605888 -0.01145,9.213243 -0.08869,39.426543 -0.113486,49.001313 -0.0042,1.622746 0.132827,4.250933 0.505738,5.82894 0.341964,1.44705 0.718344,2.655688 0.718344,2.655688 -0.461457,-12.624047 7.740027,-23.173364 19.700823,-28.005308 1.998605,-0.8074 5.42407,-1.509604 7.576318,-1.598741 z"
         id="path2"
         sodipodi:nodetypes="ssazcssccs"
         inkscape:path-effect="#path-effect5"
         inkscape:original-d="m 80.88339,70.164274 c 2.97168,-0.857559 42.6337,-0.536762 43.19418,-0.746337 22.05926,-8.248348 28.91876,-17.104123 29.27141,-31.411855 0.22387,-9.083055 -8.84382,-18.972661 -17.57755,-20.832613 -8.73373,-1.859952 -58.793879,0.404082 -58.793879,0.404082 0,0 -5.274215,-0.316643 -12.646371,5.684627 -4.4242,3.6015 -7.947435,11.184208 -7.947435,16.888973 0,7.055207 -0.122558,53.744599 -0.122558,53.744599 0.196777,2.222928 1.23173,5.546386 1.23173,5.546386 -0.507524,-13.884304 9.463868,-25.25896 23.390473,-29.277862 z" /></g><g
       id="g18"><path
         style="display:inline;fill:url(#linearGradient18);stroke:none;stroke-width:0.264583;stroke-opacity:1"
         d="m 106.07143,221.94183 c 0,0 4.59679,-1.41964 8.12778,-3.41841 1.84654,-1.04527 4.16918,-3.67566 4.94175,-5.65065 0.16666,-0.42605 0.3222,-0.85985 0.46601,-1.2886 0.8173,-2.43654 1.21344,-6.57736 1.21344,-9.14937 v -32.75769 c 0,-2.26694 1.84603,-4.13979 4.09404,-3.8627 4.44351,0.54771 11.82525,2.27479 18.68606,7.63763 11.90333,9.30439 10.75867,21.51734 10.75867,21.51734 l -0.80816,26.36633 z"
         id="path16"
         sodipodi:nodetypes="caccsccc"
         inkscape:path-effect="#path-effect16"
         inkscape:original-d="m 106.07143,221.94183 c 0,0 8.40232,-2.59491 11.21327,-5.70764 2.18986,-2.42497 3.53571,-9.14235 3.53571,-9.14235 v -41.51939 c 0,0 12.02958,-0.5237 22.7801,7.87959 11.90333,9.30439 10.75867,21.51734 10.75867,21.51734 l -0.80816,26.36633 z" /><path
         style="display:inline;fill:url(#linearGradient14);stroke:none;stroke-width:0.264583;stroke-opacity:1"
         d="M 82.675886,271 H 128.1858 a 25.743197,25.743197 135.29754 0 0 25.7418,-25.47583 l 0.5354,-51.5477 c 0,0 -0.0591,11.91689 -7.46586,19.30386 -3.35855,3.34958 -6.70363,5.37052 -9.42575,6.58611 -3.21889,1.43742 -8.99035,1.80756 -12.52893,1.80756 l -29.704009,0 A 2.705451,2.705451 45 0 1 92.633,218.96855 l 0,-36.97579 A 9.5977636,9.5977636 45 0 0 83.035236,172.395 H 46.962993 c -1.003961,0 -2.637538,-0.0112 -3.621881,-0.20124 -2.461709,-0.47536 -7.147651,-2.06521 -12.195435,-7.36585 -3.651894,-3.83482 -5.311727,-13.93138 -5.311727,-13.93138 l 1.024563,46.82784 29.858487,0.57146 v 46.74528 A 25.958886,25.958886 45 0 0 82.675886,271 Z"
         id="path13"
         sodipodi:nodetypes="cccsccccscccc"
         inkscape:path-effect="#path-effect13"
         inkscape:original-d="m 56.717,271 h 96.946 l 0.8,-77.02353 c 0,0 -0.0591,11.91689 -7.46586,19.30386 -7.81021,7.78933 -15.54751,8.39367 -15.54751,8.39367 H 92.633 V 172.395 H 45.14516 c 0,0 -6.612261,0.19017 -13.999483,-7.56709 -3.651894,-3.83482 -5.311727,-13.93138 -5.311727,-13.93138 l 1.024563,46.82784 29.858487,0.57146 z" /><path
         style="display:inline;fill:#4cb5fe;fill-opacity:1;stroke:none;stroke-width:0.264583;stroke-opacity:1"
         d="m 50.914286,95.969402 c 0,0 3.703237,9.510798 8.433563,16.741928 2.474488,3.78268 8.101835,8.60585 11.701022,11.36789 8.337781,6.39848 13.309129,9.43299 13.309129,9.43299 V 146.431 H 28.635259 A 2.0022588,2.0022588 135 0 0 26.633,148.43326 v 26.95536 c 0,1.38855 0.38251,3.57362 0.920744,4.85346 0.769332,1.82937 1.976401,4.44341 3.450669,6.76661 1.901569,2.99656 6.915858,6.13819 10.2477,7.45177 8.522377,3.35998 15.795879,3.80189 15.795879,3.80189 l -54.496317,0 A 23.361948,23.361948 45 0 1 -20.810273,174.9004 V 119.7092 A 23.739803,23.739803 135 0 1 2.92953,95.969402 Z"
         id="path12"
         sodipodi:nodetypes="csccccscccc"
         inkscape:path-effect="#path-effect12"
         inkscape:original-d="m 50.914286,95.969402 c 0,0 6.767462,17.380458 13.691245,23.014268 C 76.763793,128.87671 84.358,133.51221 84.358,133.51221 V 146.431 H 26.633 v 31.47181 c 0,0 3.96009,11.20233 8.74219,13.8165 10.755791,5.87976 21.672802,6.54304 21.672802,6.54304 H -20.810273 V 95.969402 Z" /></g></g></svg>
